solid B3_TE5
facet normal -1 0 0
  outer loop
    vertex 0.067201347340993 0.00119116 -0.088007235643006
    vertex 0.067201347340993 0.01119116 -0.088007235643006
    vertex 0.067201347340993 0.01119116 -0.102007235643006
  endloop
endfacet
facet normal -1 0 0
  outer loop
    vertex 0.067201347340993 0.01119116 -0.102007235643006
    vertex 0.067201347340993 0.00119116 -0.102007235643006
    vertex 0.067201347340993 0.00119116 -0.088007235643006
  endloop
endfacet
endsolid B3_TE5
solid B3_TE15
facet normal 1 0 0
  outer loop
    vertex 0.081201347340993 0.01119116 -0.088007235643006
    vertex 0.081201347340993 0.00119116 -0.088007235643006
    vertex 0.081201347340993 0.00119116 -0.102007235643006
  endloop
endfacet
facet normal 1 0 0
  outer loop
    vertex 0.081201347340993 0.00119116 -0.102007235643006
    vertex 0.081201347340993 0.01119116 -0.102007235643006
    vertex 0.081201347340993 0.01119116 -0.088007235643006
  endloop
endfacet
endsolid B3_TE15
solid B3_TE25
facet normal 0 0.9999999999999999 0
  outer loop
    vertex 0.081201347340993 0.01119116 -0.088007235643006
    vertex 0.081201347340993 0.01119116 -0.102007235643006
    vertex 0.080221347340993 0.01119116 -0.102007235643006
  endloop
endfacet
facet normal 0 0.9999999999999999 0
  outer loop
    vertex 0.080221347340993 0.01119116 -0.102007235643006
    vertex 0.080221347340993 0.01119116 -0.088007235643006
    vertex 0.081201347340993 0.01119116 -0.088007235643006
  endloop
endfacet
endsolid B3_TE25
solid B3_TE32
facet normal 0 0 0.9999999999999999
  outer loop
    vertex 0.067201347340993 0.01119116 -0.088007235643006
    vertex 0.067201347340993 0.00119116 -0.088007235643006
    vertex 0.068131347340993 0.00246116 -0.088007235643006
  endloop
endfacet
facet normal 0 0 1
  outer loop
    vertex 0.067201347340993 0.00119116 -0.088007235643006
    vertex 0.06999134734099301 0.00246116 -0.088007235643006
    vertex 0.069061347340993 0.00246116 -0.088007235643006
  endloop
endfacet
facet normal 0 0 1
  outer loop
    vertex 0.069061347340993 0.00246116 -0.088007235643006
    vertex 0.068131347340993 0.00246116 -0.088007235643006
    vertex 0.067201347340993 0.00119116 -0.088007235643006
  endloop
endfacet
facet normal 0 0 1
  outer loop
    vertex 0.069061347340993 0.01119116 -0.088007235643006
    vertex 0.069061347340993 0.00246116 -0.088007235643006
    vertex 0.06999134734099301 0.00246116 -0.088007235643006
  endloop
endfacet
facet normal 0 -0 1
  outer loop
    vertex 0.06999134734099301 0.00246116 -0.088007235643006
    vertex 0.06999134734099301 0.01119116 -0.088007235643006
    vertex 0.069061347340993 0.01119116 -0.088007235643006
  endloop
endfacet
facet normal 0 0 1
  outer loop
    vertex 0.067201347340993 0.00119116 -0.088007235643006
    vertex 0.07185134734099301 0.00246116 -0.088007235643006
    vertex 0.07092134734099301 0.00246116 -0.088007235643006
  endloop
endfacet
facet normal 0 0 1
  outer loop
    vertex 0.07092134734099301 0.00246116 -0.088007235643006
    vertex 0.06999134734099301 0.00246116 -0.088007235643006
    vertex 0.067201347340993 0.00119116 -0.088007235643006
  endloop
endfacet
facet normal 0 0 1
  outer loop
    vertex 0.07092134734099301 0.01119116 -0.088007235643006
    vertex 0.07092134734099301 0.00246116 -0.088007235643006
    vertex 0.07185134734099301 0.00246116 -0.088007235643006
  endloop
endfacet
facet normal 0 -0 1
  outer loop
    vertex 0.07185134734099301 0.00246116 -0.088007235643006
    vertex 0.07185134734099301 0.01119116 -0.088007235643006
    vertex 0.07092134734099301 0.01119116 -0.088007235643006
  endloop
endfacet
facet normal 0 0 1
  outer loop
    vertex 0.067201347340993 0.00119116 -0.088007235643006
    vertex 0.073711347340993 0.00246116 -0.088007235643006
    vertex 0.072781347340993 0.00246116 -0.088007235643006
  endloop
endfacet
facet normal 0 0 1
  outer loop
    vertex 0.072781347340993 0.00246116 -0.088007235643006
    vertex 0.07185134734099301 0.00246116 -0.088007235643006
    vertex 0.067201347340993 0.00119116 -0.088007235643006
  endloop
endfacet
facet normal 0 0 1
  outer loop
    vertex 0.072781347340993 0.01119116 -0.088007235643006
    vertex 0.072781347340993 0.00246116 -0.088007235643006
    vertex 0.073711347340993 0.00246116 -0.088007235643006
  endloop
endfacet
facet normal 0 -0 1
  outer loop
    vertex 0.073711347340993 0.00246116 -0.088007235643006
    vertex 0.073711347340993 0.01119116 -0.088007235643006
    vertex 0.072781347340993 0.01119116 -0.088007235643006
  endloop
endfacet
facet normal 0 0 1
  outer loop
    vertex 0.067201347340993 0.00119116 -0.088007235643006
    vertex 0.075571347340993 0.00246116 -0.088007235643006
    vertex 0.074641347340993 0.00246116 -0.088007235643006
  endloop
endfacet
facet normal 0 0 1
  outer loop
    vertex 0.074641347340993 0.00246116 -0.088007235643006
    vertex 0.073711347340993 0.00246116 -0.088007235643006
    vertex 0.067201347340993 0.00119116 -0.088007235643006
  endloop
endfacet
facet normal 0 0 1
  outer loop
    vertex 0.074641347340993 0.01119116 -0.088007235643006
    vertex 0.074641347340993 0.00246116 -0.088007235643006
    vertex 0.075571347340993 0.00246116 -0.088007235643006
  endloop
endfacet
facet normal 0 -0 1
  outer loop
    vertex 0.075571347340993 0.00246116 -0.088007235643006
    vertex 0.075571347340993 0.01119116 -0.088007235643006
    vertex 0.074641347340993 0.01119116 -0.088007235643006
  endloop
endfacet
facet normal 0 0 1
  outer loop
    vertex 0.067201347340993 0.00119116 -0.088007235643006
    vertex 0.077431347340993 0.00246116 -0.088007235643006
    vertex 0.076501347340993 0.00246116 -0.088007235643006
  endloop
endfacet
facet normal 0 0 1
  outer loop
    vertex 0.076501347340993 0.00246116 -0.088007235643006
    vertex 0.075571347340993 0.00246116 -0.088007235643006
    vertex 0.067201347340993 0.00119116 -0.088007235643006
  endloop
endfacet
facet normal 0 0 1
  outer loop
    vertex 0.076501347340993 0.01119116 -0.088007235643006
    vertex 0.076501347340993 0.00246116 -0.088007235643006
    vertex 0.077431347340993 0.00246116 -0.088007235643006
  endloop
endfacet
facet normal 0 -0 1
  outer loop
    vertex 0.077431347340993 0.00246116 -0.088007235643006
    vertex 0.077431347340993 0.01119116 -0.088007235643006
    vertex 0.076501347340993 0.01119116 -0.088007235643006
  endloop
endfacet
facet normal 0 0 1
  outer loop
    vertex 0.067201347340993 0.00119116 -0.088007235643006
    vertex 0.079291347340993 0.00246116 -0.088007235643006
    vertex 0.078361347340993 0.00246116 -0.088007235643006
  endloop
endfacet
facet normal 0 0 1
  outer loop
    vertex 0.078361347340993 0.00246116 -0.088007235643006
    vertex 0.077431347340993 0.00246116 -0.088007235643006
    vertex 0.067201347340993 0.00119116 -0.088007235643006
  endloop
endfacet
facet normal 0 0 1
  outer loop
    vertex 0.078361347340993 0.01119116 -0.088007235643006
    vertex 0.078361347340993 0.00246116 -0.088007235643006
    vertex 0.079291347340993 0.00246116 -0.088007235643006
  endloop
endfacet
facet normal 0 -0 1
  outer loop
    vertex 0.079291347340993 0.00246116 -0.088007235643006
    vertex 0.079291347340993 0.01119116 -0.088007235643006
    vertex 0.078361347340993 0.01119116 -0.088007235643006
  endloop
endfacet
facet normal 0 0 1
  outer loop
    vertex 0.081201347340993 0.00119116 -0.088007235643006
    vertex 0.080221347340993 0.00246116 -0.088007235643006
    vertex 0.079291347340993 0.00246116 -0.088007235643006
  endloop
endfacet
facet normal 0 0 1
  outer loop
    vertex 0.079291347340993 0.00246116 -0.088007235643006
    vertex 0.067201347340993 0.00119116 -0.088007235643006
    vertex 0.081201347340993 0.00119116 -0.088007235643006
  endloop
endfacet
facet normal 0 0 1
  outer loop
    vertex 0.081201347340993 0.01119116 -0.088007235643006
    vertex 0.080221347340993 0.01119116 -0.088007235643006
    vertex 0.080221347340993 0.00246116 -0.088007235643006
  endloop
endfacet
facet normal -0 0 1
  outer loop
    vertex 0.080221347340993 0.00246116 -0.088007235643006
    vertex 0.081201347340993 0.00119116 -0.088007235643006
    vertex 0.081201347340993 0.01119116 -0.088007235643006
  endloop
endfacet
facet normal 0 -0 1
  outer loop
    vertex 0.068131347340993 0.00246116 -0.088007235643006
    vertex 0.068131347340993 0.01119116 -0.088007235643006
    vertex 0.067201347340993 0.01119116 -0.088007235643006
  endloop
endfacet
endsolid B3_TE32
solid B3_TE90
facet normal 0 -0 -1
  outer loop
    vertex 0.081201347340993 0.01119116 -0.102007235643006
    vertex 0.081201347340993 0.00119116 -0.102007235643006
    vertex 0.080221347340993 0.00246116 -0.102007235643006
  endloop
endfacet
facet normal 0 0 -1
  outer loop
    vertex 0.081201347340993 0.00119116 -0.102007235643006
    vertex 0.078361347340993 0.00246116 -0.102007235643006
    vertex 0.079291347340993 0.00246116 -0.102007235643006
  endloop
endfacet
facet normal 0 0 -1
  outer loop
    vertex 0.079291347340993 0.00246116 -0.102007235643006
    vertex 0.080221347340993 0.00246116 -0.102007235643006
    vertex 0.081201347340993 0.00119116 -0.102007235643006
  endloop
endfacet
facet normal 0 -0 -1
  outer loop
    vertex 0.079291347340993 0.01119116 -0.102007235643006
    vertex 0.079291347340993 0.00246116 -0.102007235643006
    vertex 0.078361347340993 0.00246116 -0.102007235643006
  endloop
endfacet
facet normal 0 0 -1
  outer loop
    vertex 0.078361347340993 0.00246116 -0.102007235643006
    vertex 0.078361347340993 0.01119116 -0.102007235643006
    vertex 0.079291347340993 0.01119116 -0.102007235643006
  endloop
endfacet
facet normal 0 0 -1
  outer loop
    vertex 0.081201347340993 0.00119116 -0.102007235643006
    vertex 0.076501347340993 0.00246116 -0.102007235643006
    vertex 0.077431347340993 0.00246116 -0.102007235643006
  endloop
endfacet
facet normal 0 0 -1
  outer loop
    vertex 0.077431347340993 0.00246116 -0.102007235643006
    vertex 0.078361347340993 0.00246116 -0.102007235643006
    vertex 0.081201347340993 0.00119116 -0.102007235643006
  endloop
endfacet
facet normal 0 -0 -1
  outer loop
    vertex 0.077431347340993 0.01119116 -0.102007235643006
    vertex 0.077431347340993 0.00246116 -0.102007235643006
    vertex 0.076501347340993 0.00246116 -0.102007235643006
  endloop
endfacet
facet normal 0 0 -1
  outer loop
    vertex 0.076501347340993 0.00246116 -0.102007235643006
    vertex 0.076501347340993 0.01119116 -0.102007235643006
    vertex 0.077431347340993 0.01119116 -0.102007235643006
  endloop
endfacet
facet normal 0 0 -1
  outer loop
    vertex 0.081201347340993 0.00119116 -0.102007235643006
    vertex 0.074641347340993 0.00246116 -0.102007235643006
    vertex 0.075571347340993 0.00246116 -0.102007235643006
  endloop
endfacet
facet normal 0 0 -1
  outer loop
    vertex 0.075571347340993 0.00246116 -0.102007235643006
    vertex 0.076501347340993 0.00246116 -0.102007235643006
    vertex 0.081201347340993 0.00119116 -0.102007235643006
  endloop
endfacet
facet normal 0 -0 -1
  outer loop
    vertex 0.075571347340993 0.01119116 -0.102007235643006
    vertex 0.075571347340993 0.00246116 -0.102007235643006
    vertex 0.074641347340993 0.00246116 -0.102007235643006
  endloop
endfacet
facet normal 0 0 -1
  outer loop
    vertex 0.074641347340993 0.00246116 -0.102007235643006
    vertex 0.074641347340993 0.01119116 -0.102007235643006
    vertex 0.075571347340993 0.01119116 -0.102007235643006
  endloop
endfacet
facet normal 0 0 -1
  outer loop
    vertex 0.081201347340993 0.00119116 -0.102007235643006
    vertex 0.072781347340993 0.00246116 -0.102007235643006
    vertex 0.073711347340993 0.00246116 -0.102007235643006
  endloop
endfacet
facet normal 0 0 -1
  outer loop
    vertex 0.073711347340993 0.00246116 -0.102007235643006
    vertex 0.074641347340993 0.00246116 -0.102007235643006
    vertex 0.081201347340993 0.00119116 -0.102007235643006
  endloop
endfacet
facet normal 0 -0 -1
  outer loop
    vertex 0.073711347340993 0.01119116 -0.102007235643006
    vertex 0.073711347340993 0.00246116 -0.102007235643006
    vertex 0.072781347340993 0.00246116 -0.102007235643006
  endloop
endfacet
facet normal 0 0 -1
  outer loop
    vertex 0.072781347340993 0.00246116 -0.102007235643006
    vertex 0.072781347340993 0.01119116 -0.102007235643006
    vertex 0.073711347340993 0.01119116 -0.102007235643006
  endloop
endfacet
facet normal 0 0 -1
  outer loop
    vertex 0.081201347340993 0.00119116 -0.102007235643006
    vertex 0.07092134734099301 0.00246116 -0.102007235643006
    vertex 0.07185134734099301 0.00246116 -0.102007235643006
  endloop
endfacet
facet normal 0 0 -1
  outer loop
    vertex 0.07185134734099301 0.00246116 -0.102007235643006
    vertex 0.072781347340993 0.00246116 -0.102007235643006
    vertex 0.081201347340993 0.00119116 -0.102007235643006
  endloop
endfacet
facet normal 0 -0 -1
  outer loop
    vertex 0.07185134734099301 0.01119116 -0.102007235643006
    vertex 0.07185134734099301 0.00246116 -0.102007235643006
    vertex 0.07092134734099301 0.00246116 -0.102007235643006
  endloop
endfacet
facet normal 0 0 -1
  outer loop
    vertex 0.07092134734099301 0.00246116 -0.102007235643006
    vertex 0.07092134734099301 0.01119116 -0.102007235643006
    vertex 0.07185134734099301 0.01119116 -0.102007235643006
  endloop
endfacet
facet normal 0 0 -1
  outer loop
    vertex 0.081201347340993 0.00119116 -0.102007235643006
    vertex 0.069061347340993 0.00246116 -0.102007235643006
    vertex 0.06999134734099301 0.00246116 -0.102007235643006
  endloop
endfacet
facet normal 0 0 -1
  outer loop
    vertex 0.06999134734099301 0.00246116 -0.102007235643006
    vertex 0.07092134734099301 0.00246116 -0.102007235643006
    vertex 0.081201347340993 0.00119116 -0.102007235643006
  endloop
endfacet
facet normal 0 -0 -1
  outer loop
    vertex 0.06999134734099301 0.01119116 -0.102007235643006
    vertex 0.06999134734099301 0.00246116 -0.102007235643006
    vertex 0.069061347340993 0.00246116 -0.102007235643006
  endloop
endfacet
facet normal 0 0 -1
  outer loop
    vertex 0.069061347340993 0.00246116 -0.102007235643006
    vertex 0.069061347340993 0.01119116 -0.102007235643006
    vertex 0.06999134734099301 0.01119116 -0.102007235643006
  endloop
endfacet
facet normal 0 0 -1
  outer loop
    vertex 0.067201347340993 0.00119116 -0.102007235643006
    vertex 0.068131347340993 0.00246116 -0.102007235643006
    vertex 0.069061347340993 0.00246116 -0.102007235643006
  endloop
endfacet
facet normal 0 -0 -0.9999999999999999
  outer loop
    vertex 0.069061347340993 0.00246116 -0.102007235643006
    vertex 0.081201347340993 0.00119116 -0.102007235643006
    vertex 0.067201347340993 0.00119116 -0.102007235643006
  endloop
endfacet
facet normal 0 0 -1
  outer loop
    vertex 0.067201347340993 0.01119116 -0.102007235643006
    vertex 0.068131347340993 0.01119116 -0.102007235643006
    vertex 0.068131347340993 0.00246116 -0.102007235643006
  endloop
endfacet
facet normal -0 0 -0.9999999999999999
  outer loop
    vertex 0.068131347340993 0.00246116 -0.102007235643006
    vertex 0.067201347340993 0.00119116 -0.102007235643006
    vertex 0.067201347340993 0.01119116 -0.102007235643006
  endloop
endfacet
facet normal 0 0 -1
  outer loop
    vertex 0.080221347340993 0.00246116 -0.102007235643006
    vertex 0.080221347340993 0.01119116 -0.102007235643006
    vertex 0.081201347340993 0.01119116 -0.102007235643006
  endloop
endfacet
endsolid B3_TE90
solid B3_TE148
facet normal -1 0 0
  outer loop
    vertex 0.080221347340993 0.01119116 -0.102007235643006
    vertex 0.080221347340993 0.00246116 -0.102007235643006
    vertex 0.080221347340993 0.00246116 -0.088007235643006
  endloop
endfacet
facet normal -1 0 0
  outer loop
    vertex 0.080221347340993 0.00246116 -0.088007235643006
    vertex 0.080221347340993 0.01119116 -0.088007235643006
    vertex 0.080221347340993 0.01119116 -0.102007235643006
  endloop
endfacet
endsolid B3_TE148
solid B3_TE151
facet normal -1 0 0
  outer loop
    vertex 0.072781347340993 0.01119116 -0.102007235643006
    vertex 0.072781347340993 0.00246116 -0.102007235643006
    vertex 0.072781347340993 0.00246116 -0.088007235643006
  endloop
endfacet
facet normal -1 0 0
  outer loop
    vertex 0.072781347340993 0.00246116 -0.088007235643006
    vertex 0.072781347340993 0.01119116 -0.088007235643006
    vertex 0.072781347340993 0.01119116 -0.102007235643006
  endloop
endfacet
endsolid B3_TE151
solid B3_TE155
facet normal 1 0 0
  outer loop
    vertex 0.075571347340993 0.00246116 -0.102007235643006
    vertex 0.075571347340993 0.01119116 -0.102007235643006
    vertex 0.075571347340993 0.01119116 -0.088007235643006
  endloop
endfacet
facet normal 1 0 0
  outer loop
    vertex 0.075571347340993 0.01119116 -0.088007235643006
    vertex 0.075571347340993 0.00246116 -0.088007235643006
    vertex 0.075571347340993 0.00246116 -0.102007235643006
  endloop
endfacet
endsolid B3_TE155
solid B3_TE159
facet normal 0 1 0
  outer loop
    vertex 0.080221347340993 0.00246116 -0.102007235643006
    vertex 0.079291347340993 0.00246116 -0.102007235643006
    vertex 0.079291347340993 0.00246116 -0.088007235643006
  endloop
endfacet
facet normal -0 1 0
  outer loop
    vertex 0.079291347340993 0.00246116 -0.088007235643006
    vertex 0.080221347340993 0.00246116 -0.088007235643006
    vertex 0.080221347340993 0.00246116 -0.102007235643006
  endloop
endfacet
endsolid B3_TE159
solid B3_TE162
facet normal 0 1 0
  outer loop
    vertex 0.078361347340993 0.00246116 -0.102007235643006
    vertex 0.077431347340993 0.00246116 -0.102007235643006
    vertex 0.077431347340993 0.00246116 -0.088007235643006
  endloop
endfacet
facet normal -0 1 0
  outer loop
    vertex 0.077431347340993 0.00246116 -0.088007235643006
    vertex 0.078361347340993 0.00246116 -0.088007235643006
    vertex 0.078361347340993 0.00246116 -0.102007235643006
  endloop
endfacet
endsolid B3_TE162
solid B3_TE166
facet normal 0 1 0
  outer loop
    vertex 0.07092134734099301 0.00246116 -0.102007235643006
    vertex 0.06999134734099301 0.00246116 -0.102007235643006
    vertex 0.06999134734099301 0.00246116 -0.088007235643006
  endloop
endfacet
facet normal -0 1 0
  outer loop
    vertex 0.06999134734099301 0.00246116 -0.088007235643006
    vertex 0.07092134734099301 0.00246116 -0.088007235643006
    vertex 0.07092134734099301 0.00246116 -0.102007235643006
  endloop
endfacet
endsolid B3_TE166
solid B3_TE170
facet normal -1 0 0
  outer loop
    vertex 0.074641347340993 0.01119116 -0.102007235643006
    vertex 0.074641347340993 0.00246116 -0.102007235643006
    vertex 0.074641347340993 0.00246116 -0.088007235643006
  endloop
endfacet
facet normal -1 0 0
  outer loop
    vertex 0.074641347340993 0.00246116 -0.088007235643006
    vertex 0.074641347340993 0.01119116 -0.088007235643006
    vertex 0.074641347340993 0.01119116 -0.102007235643006
  endloop
endfacet
endsolid B3_TE170
solid B3_TE174
facet normal 1 0 0
  outer loop
    vertex 0.077431347340993 0.00246116 -0.102007235643006
    vertex 0.077431347340993 0.01119116 -0.102007235643006
    vertex 0.077431347340993 0.01119116 -0.088007235643006
  endloop
endfacet
facet normal 1 0 0
  outer loop
    vertex 0.077431347340993 0.01119116 -0.088007235643006
    vertex 0.077431347340993 0.00246116 -0.088007235643006
    vertex 0.077431347340993 0.00246116 -0.102007235643006
  endloop
endfacet
endsolid B3_TE174
solid B3_TE177
facet normal 1 0 0
  outer loop
    vertex 0.079291347340993 0.00246116 -0.102007235643006
    vertex 0.079291347340993 0.01119116 -0.102007235643006
    vertex 0.079291347340993 0.01119116 -0.088007235643006
  endloop
endfacet
facet normal 1 0 0
  outer loop
    vertex 0.079291347340993 0.01119116 -0.088007235643006
    vertex 0.079291347340993 0.00246116 -0.088007235643006
    vertex 0.079291347340993 0.00246116 -0.102007235643006
  endloop
endfacet
endsolid B3_TE177
solid B3_TE180
facet normal 1 0 0
  outer loop
    vertex 0.073711347340993 0.00246116 -0.102007235643006
    vertex 0.073711347340993 0.01119116 -0.102007235643006
    vertex 0.073711347340993 0.01119116 -0.088007235643006
  endloop
endfacet
facet normal 1 0 0
  outer loop
    vertex 0.073711347340993 0.01119116 -0.088007235643006
    vertex 0.073711347340993 0.00246116 -0.088007235643006
    vertex 0.073711347340993 0.00246116 -0.102007235643006
  endloop
endfacet
endsolid B3_TE180
solid B3_TE184
facet normal -1 0 0
  outer loop
    vertex 0.07092134734099301 0.01119116 -0.102007235643006
    vertex 0.07092134734099301 0.00246116 -0.102007235643006
    vertex 0.07092134734099301 0.00246116 -0.088007235643006
  endloop
endfacet
facet normal -1 0 0
  outer loop
    vertex 0.07092134734099301 0.00246116 -0.088007235643006
    vertex 0.07092134734099301 0.01119116 -0.088007235643006
    vertex 0.07092134734099301 0.01119116 -0.102007235643006
  endloop
endfacet
endsolid B3_TE184
solid B3_TE187
facet normal -1 0 -0
  outer loop
    vertex 0.080201347340993 0.00196116 -0.089007235643006
    vertex 0.080201347340993 0.00196116 -0.10100723564301
    vertex 0.080201347340993 0.00119116 -0.10100723564301
  endloop
endfacet
facet normal -1 0 0
  outer loop
    vertex 0.080201347340993 0.00119116 -0.10100723564301
    vertex 0.080201347340993 0.00119116 -0.089007235643006
    vertex 0.080201347340993 0.00196116 -0.089007235643006
  endloop
endfacet
endsolid B3_TE187
solid B3_TE197
facet normal 0 0 -1
  outer loop
    vertex 0.080201347340993 0.00119116 -0.089007235643006
    vertex 0.06820134734099301 0.00119116 -0.089007235643006
    vertex 0.06820134734099301 0.00196116 -0.089007235643006
  endloop
endfacet
facet normal 0 0 -1
  outer loop
    vertex 0.06820134734099301 0.00196116 -0.089007235643006
    vertex 0.080201347340993 0.00196116 -0.089007235643006
    vertex 0.080201347340993 0.00119116 -0.089007235643006
  endloop
endfacet
endsolid B3_TE197
solid B3_TE204
facet normal 0 1 0
  outer loop
    vertex 0.076501347340993 0.00246116 -0.102007235643006
    vertex 0.075571347340993 0.00246116 -0.102007235643006
    vertex 0.075571347340993 0.00246116 -0.088007235643006
  endloop
endfacet
facet normal -0 1 0
  outer loop
    vertex 0.075571347340993 0.00246116 -0.088007235643006
    vertex 0.076501347340993 0.00246116 -0.088007235643006
    vertex 0.076501347340993 0.00246116 -0.102007235643006
  endloop
endfacet
endsolid B3_TE204
solid B3_TE207
facet normal 0 1 0
  outer loop
    vertex 0.074641347340993 0.00246116 -0.102007235643006
    vertex 0.073711347340993 0.00246116 -0.102007235643006
    vertex 0.073711347340993 0.00246116 -0.088007235643006
  endloop
endfacet
facet normal -0 1 0
  outer loop
    vertex 0.073711347340993 0.00246116 -0.088007235643006
    vertex 0.074641347340993 0.00246116 -0.088007235643006
    vertex 0.074641347340993 0.00246116 -0.102007235643006
  endloop
endfacet
endsolid B3_TE207
solid B3_TE209
facet normal 1 0 0
  outer loop
    vertex 0.07185134734099301 0.00246116 -0.102007235643006
    vertex 0.07185134734099301 0.01119116 -0.102007235643006
    vertex 0.07185134734099301 0.01119116 -0.088007235643006
  endloop
endfacet
facet normal 1 0 0
  outer loop
    vertex 0.07185134734099301 0.01119116 -0.088007235643006
    vertex 0.07185134734099301 0.00246116 -0.088007235643006
    vertex 0.07185134734099301 0.00246116 -0.102007235643006
  endloop
endfacet
endsolid B3_TE209
solid B3_TE213
facet normal 0 1 0
  outer loop
    vertex 0.072781347340993 0.00246116 -0.102007235643006
    vertex 0.07185134734099301 0.00246116 -0.102007235643006
    vertex 0.07185134734099301 0.00246116 -0.088007235643006
  endloop
endfacet
facet normal -0 1 0
  outer loop
    vertex 0.07185134734099301 0.00246116 -0.088007235643006
    vertex 0.072781347340993 0.00246116 -0.088007235643006
    vertex 0.072781347340993 0.00246116 -0.102007235643006
  endloop
endfacet
endsolid B3_TE213
solid B3_TE215
facet normal 1 0 0
  outer loop
    vertex 0.06999134734099301 0.00246116 -0.102007235643006
    vertex 0.06999134734099301 0.01119116 -0.102007235643006
    vertex 0.06999134734099301 0.01119116 -0.088007235643006
  endloop
endfacet
facet normal 1 0 0
  outer loop
    vertex 0.06999134734099301 0.01119116 -0.088007235643006
    vertex 0.06999134734099301 0.00246116 -0.088007235643006
    vertex 0.06999134734099301 0.00246116 -0.102007235643006
  endloop
endfacet
endsolid B3_TE215
solid B3_TE218
facet normal -1 0 0
  outer loop
    vertex 0.069061347340993 0.01119116 -0.102007235643006
    vertex 0.069061347340993 0.00246116 -0.102007235643006
    vertex 0.069061347340993 0.00246116 -0.088007235643006
  endloop
endfacet
facet normal -1 0 0
  outer loop
    vertex 0.069061347340993 0.00246116 -0.088007235643006
    vertex 0.069061347340993 0.01119116 -0.088007235643006
    vertex 0.069061347340993 0.01119116 -0.102007235643006
  endloop
endfacet
endsolid B3_TE218
solid B3_TE222
facet normal 1 0 0
  outer loop
    vertex 0.068131347340993 0.00246116 -0.102007235643006
    vertex 0.068131347340993 0.01119116 -0.102007235643006
    vertex 0.068131347340993 0.01119116 -0.088007235643006
  endloop
endfacet
facet normal 1 0 0
  outer loop
    vertex 0.068131347340993 0.01119116 -0.088007235643006
    vertex 0.068131347340993 0.00246116 -0.088007235643006
    vertex 0.068131347340993 0.00246116 -0.102007235643006
  endloop
endfacet
endsolid B3_TE222
solid B3_TE226
facet normal 0 1 0
  outer loop
    vertex 0.069061347340993 0.00246116 -0.102007235643006
    vertex 0.068131347340993 0.00246116 -0.102007235643006
    vertex 0.068131347340993 0.00246116 -0.088007235643006
  endloop
endfacet
facet normal -0 1 0
  outer loop
    vertex 0.068131347340993 0.00246116 -0.088007235643006
    vertex 0.069061347340993 0.00246116 -0.088007235643006
    vertex 0.069061347340993 0.00246116 -0.102007235643006
  endloop
endfacet
endsolid B3_TE226
solid B3_TE228
facet normal -0 1 0
  outer loop
    vertex 0.067201347340993 0.01119116 -0.088007235643006
    vertex 0.068131347340993 0.01119116 -0.088007235643006
    vertex 0.068131347340993 0.01119116 -0.102007235643006
  endloop
endfacet
facet normal 0 1 0
  outer loop
    vertex 0.068131347340993 0.01119116 -0.102007235643006
    vertex 0.067201347340993 0.01119116 -0.102007235643006
    vertex 0.067201347340993 0.01119116 -0.088007235643006
  endloop
endfacet
endsolid B3_TE228
solid B3_TE230
facet normal -0 1 0
  outer loop
    vertex 0.07092134734099301 0.01119116 -0.088007235643006
    vertex 0.07185134734099301 0.01119116 -0.088007235643006
    vertex 0.07185134734099301 0.01119116 -0.102007235643006
  endloop
endfacet
facet normal 0 1 0
  outer loop
    vertex 0.07185134734099301 0.01119116 -0.102007235643006
    vertex 0.07092134734099301 0.01119116 -0.102007235643006
    vertex 0.07092134734099301 0.01119116 -0.088007235643006
  endloop
endfacet
endsolid B3_TE230
solid B3_TE232
facet normal 0 1 0
  outer loop
    vertex 0.06999134734099301 0.01119116 -0.088007235643006
    vertex 0.06999134734099301 0.01119116 -0.102007235643006
    vertex 0.069061347340993 0.01119116 -0.102007235643006
  endloop
endfacet
facet normal 0 1 0
  outer loop
    vertex 0.069061347340993 0.01119116 -0.102007235643006
    vertex 0.069061347340993 0.01119116 -0.088007235643006
    vertex 0.06999134734099301 0.01119116 -0.088007235643006
  endloop
endfacet
endsolid B3_TE232
solid B3_TE234
facet normal 0 1 0
  outer loop
    vertex 0.073711347340993 0.01119116 -0.088007235643006
    vertex 0.073711347340993 0.01119116 -0.102007235643006
    vertex 0.072781347340993 0.01119116 -0.102007235643006
  endloop
endfacet
facet normal 0 1 0
  outer loop
    vertex 0.072781347340993 0.01119116 -0.102007235643006
    vertex 0.072781347340993 0.01119116 -0.088007235643006
    vertex 0.073711347340993 0.01119116 -0.088007235643006
  endloop
endfacet
endsolid B3_TE234
solid B3_TE236
facet normal -0 1 0
  outer loop
    vertex 0.074641347340993 0.01119116 -0.088007235643006
    vertex 0.075571347340993 0.01119116 -0.088007235643006
    vertex 0.075571347340993 0.01119116 -0.102007235643006
  endloop
endfacet
facet normal 0 1 0
  outer loop
    vertex 0.075571347340993 0.01119116 -0.102007235643006
    vertex 0.074641347340993 0.01119116 -0.102007235643006
    vertex 0.074641347340993 0.01119116 -0.088007235643006
  endloop
endfacet
endsolid B3_TE236
solid B3_TE238
facet normal -0 1 0
  outer loop
    vertex 0.078361347340993 0.01119116 -0.088007235643006
    vertex 0.079291347340993 0.01119116 -0.088007235643006
    vertex 0.079291347340993 0.01119116 -0.102007235643006
  endloop
endfacet
facet normal 0 1 0
  outer loop
    vertex 0.079291347340993 0.01119116 -0.102007235643006
    vertex 0.078361347340993 0.01119116 -0.102007235643006
    vertex 0.078361347340993 0.01119116 -0.088007235643006
  endloop
endfacet
endsolid B3_TE238
solid B3_TE241
facet normal -0 1 0
  outer loop
    vertex 0.076501347340993 0.01119116 -0.088007235643006
    vertex 0.077431347340993 0.01119116 -0.088007235643006
    vertex 0.077431347340993 0.01119116 -0.102007235643006
  endloop
endfacet
facet normal 0 1 0
  outer loop
    vertex 0.077431347340993 0.01119116 -0.102007235643006
    vertex 0.076501347340993 0.01119116 -0.102007235643006
    vertex 0.076501347340993 0.01119116 -0.088007235643006
  endloop
endfacet
endsolid B3_TE241
solid B3_TE244
facet normal 0 -0.9999999999999999 0
  outer loop
    vertex 0.067201347340993 0.00119116 -0.102007235643006
    vertex 0.081201347340993 0.00119116 -0.102007235643006
    vertex 0.080201347340993 0.00119116 -0.10100723564301
  endloop
endfacet
facet normal 0 -0.9999999999999999 0
  outer loop
    vertex 0.081201347340993 0.00119116 -0.102007235643006
    vertex 0.081201347340993 0.00119116 -0.088007235643006
    vertex 0.080201347340993 0.00119116 -0.089007235643006
  endloop
endfacet
facet normal 0 -1 0
  outer loop
    vertex 0.080201347340993 0.00119116 -0.089007235643006
    vertex 0.080201347340993 0.00119116 -0.10100723564301
    vertex 0.081201347340993 0.00119116 -0.102007235643006
  endloop
endfacet
facet normal -0 -0.9999999999999999 0
  outer loop
    vertex 0.081201347340993 0.00119116 -0.088007235643006
    vertex 0.067201347340993 0.00119116 -0.088007235643006
    vertex 0.06820134734099301 0.00119116 -0.089007235643006
  endloop
endfacet
facet normal 0 -1 0
  outer loop
    vertex 0.06820134734099301 0.00119116 -0.089007235643006
    vertex 0.080201347340993 0.00119116 -0.089007235643006
    vertex 0.081201347340993 0.00119116 -0.088007235643006
  endloop
endfacet
facet normal 0 -0.9999999999999999 0
  outer loop
    vertex 0.067201347340993 0.00119116 -0.088007235643006
    vertex 0.067201347340993 0.00119116 -0.102007235643006
    vertex 0.06820134734099301 0.00119116 -0.10100723564301
  endloop
endfacet
facet normal 0 -1 0
  outer loop
    vertex 0.06820134734099301 0.00119116 -0.10100723564301
    vertex 0.06820134734099301 0.00119116 -0.089007235643006
    vertex 0.067201347340993 0.00119116 -0.088007235643006
  endloop
endfacet
facet normal -0 -1 0
  outer loop
    vertex 0.080201347340993 0.00119116 -0.10100723564301
    vertex 0.06820134734099301 0.00119116 -0.10100723564301
    vertex 0.067201347340993 0.00119116 -0.102007235643006
  endloop
endfacet
endsolid B3_TE244
solid B3_TE250
facet normal 1 0 0
  outer loop
    vertex 0.06820134734099301 0.00119116 -0.089007235643006
    vertex 0.06820134734099301 0.00119116 -0.10100723564301
    vertex 0.06820134734099301 0.00196116 -0.10100723564301
  endloop
endfacet
facet normal 1 0 -0
  outer loop
    vertex 0.06820134734099301 0.00196116 -0.10100723564301
    vertex 0.06820134734099301 0.00196116 -0.089007235643006
    vertex 0.06820134734099301 0.00119116 -0.089007235643006
  endloop
endfacet
endsolid B3_TE250
solid B3_TE255
facet normal 0 -1 0
  outer loop
    vertex 0.06820134734099301 0.00196116 -0.10100723564301
    vertex 0.080201347340993 0.00196116 -0.10100723564301
    vertex 0.080201347340993 0.00196116 -0.089007235643006
  endloop
endfacet
facet normal -0 -1 0
  outer loop
    vertex 0.080201347340993 0.00196116 -0.089007235643006
    vertex 0.06820134734099301 0.00196116 -0.089007235643006
    vertex 0.06820134734099301 0.00196116 -0.10100723564301
  endloop
endfacet
endsolid B3_TE255
solid B3_TE258
facet normal 0 0 1
  outer loop
    vertex 0.06820134734099301 0.00196116 -0.10100723564301
    vertex 0.06820134734099301 0.00119116 -0.10100723564301
    vertex 0.080201347340993 0.00119116 -0.10100723564301
  endloop
endfacet
facet normal 0 -0 1
  outer loop
    vertex 0.080201347340993 0.00119116 -0.10100723564301
    vertex 0.080201347340993 0.00196116 -0.10100723564301
    vertex 0.06820134734099301 0.00196116 -0.10100723564301
  endloop
endfacet
endsolid B3_TE258
solid B3_TE260
facet normal -1 0 0
  outer loop
    vertex 0.076501347340993 0.01119116 -0.102007235643006
    vertex 0.076501347340993 0.00246116 -0.102007235643006
    vertex 0.076501347340993 0.00246116 -0.088007235643006
  endloop
endfacet
facet normal -1 0 0
  outer loop
    vertex 0.076501347340993 0.00246116 -0.088007235643006
    vertex 0.076501347340993 0.01119116 -0.088007235643006
    vertex 0.076501347340993 0.01119116 -0.102007235643006
  endloop
endfacet
endsolid B3_TE260
solid B3_TE262
facet normal -1 0 0
  outer loop
    vertex 0.078361347340993 0.01119116 -0.102007235643006
    vertex 0.078361347340993 0.00246116 -0.102007235643006
    vertex 0.078361347340993 0.00246116 -0.088007235643006
  endloop
endfacet
facet normal -1 0 0
  outer loop
    vertex 0.078361347340993 0.00246116 -0.088007235643006
    vertex 0.078361347340993 0.01119116 -0.088007235643006
    vertex 0.078361347340993 0.01119116 -0.102007235643006
  endloop
endfacet
endsolid B3_TE262
