solid B1_TE5
facet normal -0 -1 0
  outer loop
    vertex 0.105590808869626 0.00119116 -0.0951391310800685
    vertex 0.098490808869626 0.00119116 -0.0951391310800685
    vertex 0.098490808869626 0.00119116 -0.10225521310053401
  endloop
endfacet
facet normal 0 -1 0
  outer loop
    vertex 0.098490808869626 0.00119116 -0.10225521310053401
    vertex 0.105590808869626 0.00119116 -0.10225521310053401
    vertex 0.105590808869626 0.00119116 -0.0951391310800685
  endloop
endfacet
endsolid B1_TE5
solid B1_TE15
facet normal 0 -0 -1
  outer loop
    vertex 0.105590808869626 0.00219116 -0.10225521310053401
    vertex 0.105590808869626 0.00119116 -0.10225521310053401
    vertex 0.098490808869626 0.00119116 -0.10225521310053401
  endloop
endfacet
facet normal 0 0 -1
  outer loop
    vertex 0.098490808869626 0.00119116 -0.10225521310053401
    vertex 0.098490808869626 0.00219116 -0.10225521310053401
    vertex 0.105590808869626 0.00219116 -0.10225521310053401
  endloop
endfacet
endsolid B1_TE15
solid B1_TE22
facet normal 0.9999999999999999 0 0
  outer loop
    vertex 0.105590808869626 0.00219116 -0.0951391310800685
    vertex 0.105590808869626 0.00119116 -0.0951391310800685
    vertex 0.105590808869626 0.00119116 -0.10225521310053401
  endloop
endfacet
facet normal 0.9999999999999999 0 0
  outer loop
    vertex 0.105590808869626 0.00119116 -0.10225521310053401
    vertex 0.105590808869626 0.00219116 -0.10225521310053401
    vertex 0.105590808869626 0.00219116 -0.0951391310800685
  endloop
endfacet
endsolid B1_TE22
solid B1_TE27
facet normal -0 1 0
  outer loop
    vertex 0.098490808869626 0.00219116 -0.0951391310800685
    vertex 0.105590808869626 0.00219116 -0.0951391310800685
    vertex 0.105590808869626 0.00219116 -0.10225521310053401
  endloop
endfacet
facet normal 0 1 0
  outer loop
    vertex 0.105590808869626 0.00219116 -0.10225521310053401
    vertex 0.098490808869626 0.00219116 -0.10225521310053401
    vertex 0.098490808869626 0.00219116 -0.0951391310800685
  endloop
endfacet
endsolid B1_TE27
solid B1_TE32
facet normal 0 0 1
  outer loop
    vertex 0.105590808869626 0.00219116 -0.0951391310800685
    vertex 0.098490808869626 0.00219116 -0.0951391310800685
    vertex 0.098490808869626 0.00119116 -0.0951391310800685
  endloop
endfacet
facet normal 0 0 1
  outer loop
    vertex 0.098490808869626 0.00119116 -0.0951391310800685
    vertex 0.105590808869626 0.00119116 -0.0951391310800685
    vertex 0.105590808869626 0.00219116 -0.0951391310800685
  endloop
endfacet
endsolid B1_TE32
solid B1_TE35
facet normal -0.9999999999999999 0 -0
  outer loop
    vertex 0.098490808869626 0.00219116 -0.0951391310800685
    vertex 0.098490808869626 0.00219116 -0.10225521310053401
    vertex 0.098490808869626 0.00119116 -0.10225521310053401
  endloop
endfacet
facet normal -0.9999999999999999 0 0
  outer loop
    vertex 0.098490808869626 0.00119116 -0.10225521310053401
    vertex 0.098490808869626 0.00119116 -0.0951391310800685
    vertex 0.098490808869626 0.00219116 -0.0951391310800685
  endloop
endfacet
endsolid B1_TE35
