solid B2_TE5
facet normal 0 0 1
  outer loop
    vertex 0.080201347340993 0.00196116 -0.089007235643006
    vertex 0.06820134734099301 0.00196116 -0.089007235643006
    vertex 0.06820134734099301 0.00119116 -0.089007235643006
  endloop
endfacet
facet normal 0 0 1
  outer loop
    vertex 0.06820134734099301 0.00119116 -0.089007235643006
    vertex 0.080201347340993 0.00119116 -0.089007235643006
    vertex 0.080201347340993 0.00196116 -0.089007235643006
  endloop
endfacet
endsolid B2_TE5
solid B2_TE15
facet normal -1 0 -0
  outer loop
    vertex 0.06820134734099301 0.00196116 -0.089007235643006
    vertex 0.06820134734099301 0.00196116 -0.10100723564301
    vertex 0.06820134734099301 0.00119116 -0.10100723564301
  endloop
endfacet
facet normal -1 0 0
  outer loop
    vertex 0.06820134734099301 0.00119116 -0.10100723564301
    vertex 0.06820134734099301 0.00119116 -0.089007235643006
    vertex 0.06820134734099301 0.00196116 -0.089007235643006
  endloop
endfacet
endsolid B2_TE15
solid B2_TE22
facet normal -0 -1 0
  outer loop
    vertex 0.080201347340993 0.00119116 -0.089007235643006
    vertex 0.06820134734099301 0.00119116 -0.089007235643006
    vertex 0.06820134734099301 0.00119116 -0.10100723564301
  endloop
endfacet
facet normal 0 -1 0
  outer loop
    vertex 0.06820134734099301 0.00119116 -0.10100723564301
    vertex 0.080201347340993 0.00119116 -0.10100723564301
    vertex 0.080201347340993 0.00119116 -0.089007235643006
  endloop
endfacet
endsolid B2_TE22
solid B2_TE27
facet normal 0 -0 -1
  outer loop
    vertex 0.080201347340993 0.00196116 -0.10100723564301
    vertex 0.080201347340993 0.00119116 -0.10100723564301
    vertex 0.06820134734099301 0.00119116 -0.10100723564301
  endloop
endfacet
facet normal 0 0 -1
  outer loop
    vertex 0.06820134734099301 0.00119116 -0.10100723564301
    vertex 0.06820134734099301 0.00196116 -0.10100723564301
    vertex 0.080201347340993 0.00196116 -0.10100723564301
  endloop
endfacet
endsolid B2_TE27
solid B2_TE32
facet normal 1 0 0
  outer loop
    vertex 0.080201347340993 0.00119116 -0.089007235643006
    vertex 0.080201347340993 0.00119116 -0.10100723564301
    vertex 0.080201347340993 0.00196116 -0.10100723564301
  endloop
endfacet
facet normal 1 0 -0
  outer loop
    vertex 0.080201347340993 0.00196116 -0.10100723564301
    vertex 0.080201347340993 0.00196116 -0.089007235643006
    vertex 0.080201347340993 0.00119116 -0.089007235643006
  endloop
endfacet
endsolid B2_TE32
solid B2_TE35
facet normal -0 1 0
  outer loop
    vertex 0.06820134734099301 0.00196116 -0.089007235643006
    vertex 0.080201347340993 0.00196116 -0.089007235643006
    vertex 0.080201347340993 0.00196116 -0.10100723564301
  endloop
endfacet
facet normal 0 1 0
  outer loop
    vertex 0.080201347340993 0.00196116 -0.10100723564301
    vertex 0.06820134734099301 0.00196116 -0.10100723564301
    vertex 0.06820134734099301 0.00196116 -0.089007235643006
  endloop
endfacet
endsolid B2_TE35
